<svg width="95" height="155" viewBox="0 0 95 274" fill="none" xmlns="http://www.w3.org/2000/svg">
<path d="M2.04827 250.153C2.44276 247.146 3.55864 244.469 5.3959 242.122C9.18606 237.443 13.9724 235.483 19.7549 236.242C22.7618 236.636 25.4312 237.81 27.7631 239.763C32.4572 243.437 34.4098 248.281 33.6208 254.295C33.2415 257.186 32.0753 259.798 30.1224 262.13C26.3474 266.693 21.5109 268.588 15.6127 267.814C12.7214 267.435 10.0521 266.261 7.60452 264.293C3.15688 260.533 1.30479 255.82 2.04827 250.153ZM20.3032 189.022C20.3032 189.022 35.5349 132.553 65.9983 19.6144C67.3294 14.8481 69.4492 11.2441 72.3577 8.8023C75.1202 6.57663 78.2361 5.69138 81.7057 6.14657C85.2908 6.61693 87.9526 7.84846 89.6911 9.84115C92.0476 12.5031 92.93 16.0893 92.3382 20.5997C92.2017 21.6405 92.0073 22.6738 91.7551 23.6995L48.8442 192.061C47.6894 196.379 46.0398 199.986 43.8953 202.881C39.798 208.108 35.205 210.388 30.1164 209.72C28.8443 209.553 27.6603 209.163 26.5645 208.548C21.0703 205.592 18.9832 199.083 20.3032 189.022Z" fill="currentColor" />
</svg>
